<svg width="24" height="21" viewBox="0 0 24 21" fill="none" xmlns="http://www.w3.org/2000/svg">
<path d="M11.2969 0C8.58647 0.155578 6.04472 1.20881 4.01592 3.01692L7.15355 6.15455C8.33433 5.17153 9.76805 4.57748 11.2969 4.4378V0ZM6.15886 7.14858L3.02128 4.011C1.21163 6.03923 0.157078 8.58117 0.000515625 11.2922H4.4385C4.57913 9.76313 5.17444 8.32927 6.15886 7.14858ZM19.5615 11.2922H23.9995C23.8429 8.58117 22.7884 6.03923 20.9787 4.011L17.8411 7.14858C18.8256 8.32922 19.4209 9.76313 19.5615 11.2922ZM19.5605 12.6985C19.4619 13.7814 19.1529 14.6847 18.7874 15.4093C19.0726 15.8492 19.3561 16.2902 19.6376 16.7325C20.1725 17.5731 20.0541 18.652 19.3496 19.3565C19.1814 19.525 18.986 19.6639 18.7715 19.7672L19.5022 20.498C19.5675 20.5635 19.6452 20.6155 19.7306 20.6509C19.8161 20.6863 19.9077 20.7044 20.0002 20.7043C20.1805 20.7043 20.3608 20.6355 20.4982 20.498C22.6041 18.3924 23.832 15.6449 24 12.6985H19.5605ZM4.43953 12.6985H0C0.168047 15.6449 1.39594 18.3924 3.5017 20.4981C3.63923 20.6356 3.81947 20.7044 3.9997 20.7044C4.17994 20.7044 4.36022 20.6355 4.49775 20.4981L6.63113 18.3645C6.90614 18.0895 6.90614 17.6435 6.63113 17.3685C6.07439 16.8117 4.67203 15.253 4.43953 12.6985ZM19.9841 3.01692C17.9553 1.20877 15.4135 0.155578 12.7031 0V4.4378C14.2319 4.57748 15.6657 5.17153 16.8465 6.15455L19.9841 3.01692ZM13.5623 10.4448C12.7009 9.58341 11.2993 9.58341 10.4378 10.4448C9.57642 11.3062 9.57642 12.7079 10.4378 13.5693C11.5261 14.6576 16.8743 18.0724 17.4806 18.4582C17.6155 18.5441 17.7758 18.5814 17.9348 18.5639C18.0938 18.5465 18.2421 18.4753 18.3552 18.3622C18.4684 18.2491 18.5395 18.1007 18.557 17.9417C18.5744 17.7827 18.5372 17.6225 18.4513 17.4875C18.0654 16.8813 14.6506 11.533 13.5623 10.4448Z" fill="#FF6500"/>
</svg>
