<svg width="24" height="24" viewBox="0 0 24 24" fill="none" xmlns="http://www.w3.org/2000/svg">
<path d="M18.9429 3.51491C18.7384 3.71949 18.6235 3.99691 18.6235 4.28618C18.6235 4.57545 18.7384 4.85288 18.9429 5.05746C20.5158 6.63063 21.5078 8.69131 21.7564 10.902C22.0051 13.1126 21.4956 15.3421 20.3115 17.2254C19.1273 19.1086 17.3388 20.5339 15.2387 21.2678C13.1387 22.0017 10.8517 22.0006 8.75229 21.2648C6.65292 20.529 4.86565 19.1021 3.68326 17.2178C2.50087 15.3334 1.99345 13.1034 2.24411 10.893C2.49477 8.68257 3.48865 6.6228 5.06296 5.05108C6.63727 3.47935 8.69867 2.48885 10.9095 2.24182V5.00182C9.33882 5.25106 7.89783 6.02193 6.81879 7.19018C5.73974 8.35843 5.08552 9.85599 4.96156 11.4415C4.8376 13.027 5.25113 14.608 6.13549 15.9298C7.01985 17.2515 8.32353 18.237 9.83638 18.7273C11.3492 19.2176 12.9831 19.1842 14.4747 18.6325C15.9662 18.0808 17.2286 17.043 18.0582 15.6862C18.8879 14.3294 19.2365 12.7328 19.0479 11.1537C18.8593 9.57462 18.1444 8.10502 17.0186 6.98182C16.8139 6.77726 16.5363 6.6624 16.2469 6.66251C15.9575 6.66261 15.68 6.77766 15.4755 6.98236C15.2709 7.18706 15.1561 7.46464 15.1562 7.75402C15.1563 8.04341 15.2713 8.3209 15.476 8.52545C16.2493 9.29365 16.7453 10.2971 16.886 11.378C17.0266 12.4589 16.8039 13.5559 16.2529 14.4964C15.7019 15.4369 14.8538 16.1675 13.8422 16.5733C12.8305 16.9791 11.7126 17.0371 10.6644 16.7381C9.61623 16.4391 8.69717 15.8002 8.05183 14.9217C7.40649 14.0433 7.0715 12.9752 7.09957 11.8856C7.12763 10.7959 7.51715 9.7465 8.20685 8.90244C8.89655 8.05837 9.84728 7.46755 10.9095 7.22291V10.1204C10.4935 10.3605 10.1685 10.7312 9.98466 11.1749C9.80086 11.6187 9.76862 12.1106 9.89292 12.5746C10.0172 13.0385 10.2912 13.4484 10.6722 13.7408C11.0532 14.0332 11.5201 14.1917 12.0004 14.1917C12.4807 14.1917 12.9476 14.0332 13.3286 13.7408C13.7096 13.4484 13.9836 13.0385 14.1079 12.5746C14.2322 12.1106 14.1999 11.6187 14.0161 11.1749C13.8323 10.7312 13.5073 10.3605 13.0913 10.1204V1.09091C13.0913 0.801582 12.9764 0.524105 12.7718 0.31952C12.5672 0.114935 12.2897 6.05139e-09 12.0004 6.05139e-09C9.22413 -8.81247e-05 6.53372 0.962462 4.38758 2.72364C2.24144 4.48482 0.772368 6.93566 0.230664 9.65857C-0.311039 12.3815 0.108149 15.208 1.4168 17.6565C2.72546 20.1049 4.84261 22.0239 7.40752 23.0864C9.97243 24.1489 12.8264 24.2892 15.4831 23.4834C18.1399 22.6775 20.435 20.9754 21.9775 18.6671C23.52 16.3587 24.2143 13.587 23.9423 10.8241C23.6702 8.06117 22.4486 5.47807 20.4855 3.51491C20.2809 3.3104 20.0035 3.19551 19.7142 3.19551C19.4249 3.19551 19.1475 3.3104 18.9429 3.51491Z" fill="#FF6500"/>
</svg>
