<svg width="31" height="31" viewBox="0 0 31 31" fill="none" xmlns="http://www.w3.org/2000/svg">
<path d="M30.8746 9.4695C30.8746 7.2725 28.8568 5.48506 26.3764 5.48506C26.2839 5.48506 26.1939 5.51437 26.1191 5.56875L24.3267 6.87156L22.536 5.56881C22.4612 5.51441 22.3711 5.48509 22.2786 5.48506C21.4251 5.48506 20.6029 5.69744 19.883 6.10025C19.1886 5.71125 18.3669 5.48506 17.4862 5.48506C17.3938 5.48506 17.3038 5.51437 17.229 5.56875L15.4366 6.87156L13.6459 5.56881C13.5711 5.51441 13.4809 5.48509 13.3884 5.48506C12.5075 5.48506 11.6856 5.71138 10.9911 6.10063C10.2724 5.69763 9.45044 5.48506 8.59606 5.48506C8.50362 5.48506 8.41356 5.51437 8.33881 5.56875L6.54638 6.87156L4.75569 5.56881C4.68087 5.51441 4.59075 5.48509 4.49825 5.48506C2.01787 5.48506 0 7.2725 0 9.4695V15.9006C0 15.9333 0.003875 15.9649 0.010625 15.9956C0.0245 16.3837 0.052375 16.7751 0.094875 17.1611C0.123732 17.4211 0.247516 17.6613 0.442511 17.8357C0.637507 18.0102 0.890003 18.1065 1.15163 18.1063H2.38469C2.47656 18.1063 2.54869 18.1647 2.56844 18.2547C2.90381 19.7896 3.50206 21.2337 4.34481 22.5447C4.39494 22.6238 4.38519 22.7171 4.31994 22.7823L3.44944 23.6528C3.06369 24.0357 3.02963 24.6448 3.37038 25.0701C3.7301 25.5187 4.11391 25.9476 4.52012 26.3546C4.9276 26.7613 5.3569 27.1455 5.80613 27.5055C6.23169 27.8442 6.84031 27.8097 7.22044 27.4268L8.09544 26.5534C8.15844 26.4901 8.25212 26.4803 8.32762 26.5284C9.64074 27.3737 11.0952 27.9759 12.6214 28.3062C12.7107 28.3258 12.7684 28.398 12.7684 28.49V29.7231C12.7682 29.9847 12.8646 30.2372 13.039 30.4322C13.2135 30.6272 13.4538 30.751 13.7138 30.7798C14.2861 30.8436 14.8614 30.8755 15.4372 30.8754C16.0127 30.8754 16.5881 30.8436 17.1591 30.7799C17.4192 30.7512 17.6595 30.6274 17.834 30.4324C18.0085 30.2374 18.1049 29.9848 18.1046 29.7231V28.49C18.1046 28.3982 18.163 28.3261 18.2529 28.3064C19.7859 27.9718 21.2307 27.3736 22.5461 26.5291C22.6235 26.4797 22.7156 26.4897 22.7806 26.5548L23.6523 27.4264C24.0361 27.8101 24.6447 27.8438 25.0676 27.5049C25.5178 27.1453 25.9477 26.761 26.3553 26.3538C26.7609 25.9465 27.1446 25.5179 27.5046 25.0697C27.6685 24.8657 27.7511 24.6082 27.7367 24.3469C27.7223 24.0855 27.6118 23.8388 27.4265 23.6539L26.5531 22.7805C26.4893 22.7168 26.4793 22.6232 26.5284 22.5471C27.3739 21.2317 27.9716 19.7868 28.3045 18.2533C28.3241 18.164 28.3963 18.1063 28.4883 18.1063H29.7231C30.2642 18.1063 30.7178 17.6999 30.7779 17.1623C30.8218 16.7746 30.8505 16.3855 30.864 15.9956C30.8708 15.965 30.8746 15.9333 30.8746 15.9006V9.4695ZM24.3854 7.84569L24.8308 12.1624L24.3269 12.8529L23.8241 12.1626L24.2679 7.84569C24.3069 7.85094 24.3464 7.85094 24.3854 7.84569ZM22.1393 6.36262L23.443 7.31106L22.9364 12.24C22.9253 12.3474 22.9544 12.4551 23.018 12.5424L23.9729 13.8534C24.0134 13.9092 24.0666 13.9545 24.128 13.9858C24.1895 14.0171 24.2574 14.0334 24.3264 14.0334H24.3266C24.3955 14.0334 24.4634 14.0172 24.5248 13.9859C24.5863 13.9547 24.6395 13.9094 24.6801 13.8538L25.6368 12.5427C25.7005 12.4553 25.7296 12.3474 25.7186 12.2398L25.2103 7.31137L26.5155 6.36262C28.4491 6.42556 29.9994 7.79513 29.9994 9.46956V15.4631H28.4616V10.2437C28.4616 10.1277 28.4155 10.0164 28.3334 9.9343C28.2514 9.85223 28.1401 9.80612 28.024 9.80612C27.9079 9.80612 27.7966 9.85223 27.7146 9.9343C27.6325 10.0164 27.5864 10.1277 27.5864 10.2437V15.4631H21.9844V9.46956C21.9844 8.38281 21.4902 7.39675 20.691 6.67719C21.1424 6.48625 21.6326 6.37912 22.1392 6.36262H22.1393ZM9.32775 16.3383H13.4975L11.2885 18.9732C11.2349 19.0371 11.2007 19.1148 11.1899 19.1974C11.179 19.28 11.1919 19.364 11.2272 19.4395C11.2624 19.515 11.3184 19.5788 11.3887 19.6236C11.459 19.6683 11.5406 19.692 11.6239 19.692H13.2573V24.2664C9.57869 23.3644 6.77131 20.2282 6.38981 16.3383H9.32781H9.32775ZM13.6949 18.8167H12.5617L14.7711 16.1813L14.7745 16.1773L15.4365 15.3877L18.3112 18.8167H17.1798C17.0637 18.8167 16.9524 18.8629 16.8703 18.9449C16.7882 19.027 16.7421 19.1383 16.7421 19.2544V24.4355C15.8767 24.5596 14.998 24.5596 14.1325 24.4357V19.2544C14.1325 19.1383 14.0864 19.027 14.0043 18.9449C13.9223 18.8629 13.8109 18.8167 13.6949 18.8167ZM17.6174 19.692H19.249C19.3323 19.692 19.4138 19.6682 19.4841 19.6235C19.5543 19.5787 19.6103 19.5149 19.6456 19.4394C19.6808 19.3639 19.6937 19.28 19.6829 19.1974C19.6721 19.1148 19.6379 19.0371 19.5844 18.9732L17.3754 16.3383H24.4834C24.1033 20.2279 21.2966 23.3638 17.6174 24.2661L17.6174 19.692ZM15.4953 7.84569L15.9406 12.1624L15.4367 12.8529L14.9339 12.1626L15.3777 7.84569C15.4167 7.85094 15.4562 7.85094 15.4952 7.84569H15.4953ZM14.5529 7.311L14.0462 12.2399C14.0352 12.3474 14.0643 12.4551 14.1279 12.5423L15.0828 13.8534C15.1234 13.9091 15.1766 13.9545 15.238 13.9857C15.2994 14.017 15.3674 14.0333 15.4363 14.0334H15.4365C15.5054 14.0334 15.5733 14.0171 15.6348 13.9859C15.6962 13.9547 15.7494 13.9094 15.79 13.8537L16.7467 12.5426C16.8104 12.4552 16.8396 12.3473 16.8285 12.2397L16.3201 7.31131L17.6254 6.36256C18.3643 6.38662 19.0467 6.60194 19.6086 6.95169C19.6325 6.97081 19.6582 6.98712 19.6851 7.00062C20.5501 7.56937 21.1093 8.46425 21.1093 9.4695V15.463H19.5716V10.2437C19.5716 10.1276 19.5255 10.0163 19.4434 9.93424C19.3613 9.85217 19.25 9.80606 19.1339 9.80606C19.0179 9.80606 18.9066 9.85217 18.8245 9.93424C18.7424 10.0163 18.6963 10.1276 18.6963 10.2437V15.463H16.6417L15.7718 14.4253C15.7307 14.3763 15.6794 14.3369 15.6215 14.3099C15.5636 14.2829 15.5004 14.2689 15.4365 14.2689C15.3726 14.2689 15.3094 14.2829 15.2515 14.3099C15.1936 14.3369 15.1423 14.3763 15.1012 14.4253L14.2313 15.463H12.1785V10.2437C12.1785 10.1276 12.1324 10.0163 12.0503 9.93424C11.9683 9.85217 11.8569 9.80606 11.7409 9.80606C11.6248 9.80606 11.5135 9.85217 11.4314 9.93424C11.3494 10.0163 11.3032 10.1276 11.3032 10.2437V15.463H9.7655V9.4695C9.7655 8.46231 10.3269 7.56594 11.1947 6.99738C11.2162 6.98612 11.2366 6.97287 11.2562 6.95806C11.8199 6.60462 12.5061 6.38675 13.2493 6.36256L14.5529 7.311ZM6.60519 7.84569L7.0505 12.1624L6.54663 12.8529L6.04381 12.1626L6.48756 7.84569C6.52657 7.85094 6.56618 7.85094 6.60519 7.84569ZM0.875312 9.4695C0.875312 7.79506 2.42556 6.4255 4.35906 6.36256L5.66281 7.311L5.15613 12.2399C5.14506 12.3474 5.17414 12.4551 5.23775 12.5423L6.19263 13.8534C6.23319 13.9091 6.28636 13.9545 6.3478 13.9858C6.40923 14.017 6.47719 14.0334 6.54612 14.0334H6.54631C6.61522 14.0334 6.68316 14.0171 6.74459 13.9859C6.80602 13.9547 6.8592 13.9094 6.89981 13.8537L7.85656 12.5426C7.92032 12.4552 7.94946 12.3473 7.93837 12.2397L7.43 7.31131L8.73525 6.36256C9.2425 6.37912 9.73262 6.48625 10.1835 6.67731C9.38437 7.39687 8.89025 8.38287 8.89025 9.4695V15.463H3.28819V10.2437C3.28819 10.1276 3.24208 10.0163 3.16001 9.93424C3.07794 9.85217 2.96663 9.80606 2.85056 9.80606C2.7345 9.80606 2.62319 9.85217 2.54111 9.93424C2.45904 10.0163 2.41294 10.1276 2.41294 10.2437V15.463H0.875188V9.4695H0.875312ZM29.9083 17.0638C29.8976 17.1592 29.8181 17.2311 29.7231 17.2311H28.4883C27.9846 17.2311 27.5574 17.5743 27.4494 18.0667C27.1386 19.4986 26.581 20.8468 25.7926 22.0732C25.519 22.4971 25.5772 23.0425 25.9341 23.3995L26.8076 24.2729C26.8402 24.3054 26.8598 24.3489 26.8624 24.3949C26.865 24.4409 26.8506 24.4863 26.8218 24.5223C26.4816 24.9458 26.1191 25.3508 25.7358 25.7358C25.3512 26.1199 24.9456 26.4824 24.5208 26.8216C24.4451 26.8823 24.3401 26.8764 24.2712 26.8076L23.3996 25.9359C23.0438 25.5801 22.4991 25.5209 22.0743 25.7921C20.8458 26.5807 19.4974 27.1389 18.0658 27.4514C17.5734 27.5595 17.2294 27.9866 17.2294 28.4901V29.7231C17.23 29.7696 17.2132 29.8145 17.1822 29.8492C17.1512 29.8838 17.1084 29.9055 17.0622 29.9101C15.9818 30.0304 14.8913 30.0304 13.8109 29.9101C13.7647 29.9055 13.7219 29.8837 13.6909 29.8491C13.66 29.8145 13.6431 29.7696 13.6436 29.7231V28.4901C13.6436 27.9864 13.3004 27.5592 12.8081 27.4513C11.3833 27.1428 10.0256 26.5806 8.79975 25.7915C8.62125 25.6776 8.42181 25.6219 8.22431 25.6219C7.95062 25.6219 7.68069 25.7288 7.47563 25.9356L6.60075 26.8088C6.53312 26.8769 6.42812 26.882 6.3525 26.8218C5.92861 26.4821 5.52353 26.1195 5.13906 25.7358C4.75539 25.3513 4.3929 24.9463 4.05319 24.5225C4.02411 24.4866 4.00945 24.4411 4.01205 24.395C4.01465 24.3489 4.03433 24.3054 4.06725 24.2729L4.93881 23.4013C5.29388 23.0464 5.35362 22.5016 5.08262 22.0739C4.29488 20.8486 3.73663 19.5007 3.42344 18.0676C3.31538 17.5751 2.88825 17.2312 2.38475 17.2312H1.15169C1.05412 17.2312 0.975563 17.1609 0.964813 17.0647C0.938242 16.8231 0.917569 16.5809 0.902812 16.3384H5.51075C5.96806 21.4549 10.2502 25.4039 15.4366 25.4039C20.6229 25.4039 24.9065 21.4546 25.3625 16.3384H29.9719C29.9571 16.5807 29.9359 16.8226 29.9083 17.0639V17.0638ZM24.3266 5.70831C25.9004 5.70831 27.1808 4.42794 27.1808 2.85413C27.1808 1.28031 25.9004 0 24.3266 0C22.7528 0 21.4743 1.28038 21.4743 2.85413C21.4743 4.42788 22.7539 5.70831 24.3266 5.70831ZM24.3266 0.87525C25.4178 0.87525 26.3056 1.76294 26.3056 2.85413C26.3056 3.94531 25.4178 4.83306 24.3266 4.83306C23.2354 4.83306 22.3495 3.94531 22.3495 2.85413C22.3495 1.76294 23.2364 0.87525 24.3266 0.87525ZM6.54625 5.70837C8.12006 5.70837 9.40044 4.428 9.40044 2.85419C9.40044 1.28038 8.12006 6.24657e-05 6.54625 6.24657e-05C4.97244 6.24657e-05 3.69388 1.28044 3.69388 2.85419C3.69388 4.42794 4.9735 5.70837 6.54625 5.70837ZM6.54625 0.875312C7.63744 0.875312 8.52519 1.763 8.52519 2.85419C8.52519 3.94537 7.63744 4.83312 6.54625 4.83312C5.45506 4.83312 4.56913 3.94537 4.56913 2.85419C4.56913 1.763 5.456 0.875312 6.54625 0.875312ZM15.4364 5.70837C17.0102 5.70837 18.2906 4.428 18.2906 2.85419C18.2906 1.28038 17.0102 6.24657e-05 15.4364 6.24657e-05C13.8627 6.24657e-05 12.584 1.28044 12.584 2.85419C12.584 4.42794 13.8636 5.70837 15.4364 5.70837ZM15.4364 0.875312C16.5276 0.875312 17.4153 1.763 17.4153 2.85419C17.4153 3.94537 16.5276 4.83312 15.4364 4.83312C14.3452 4.83312 13.4592 3.94537 13.4592 2.85419C13.4592 1.763 14.3462 0.875312 15.4364 0.875312Z" fill="#FF6500"/>
</svg>
