<svg width="32" height="32" viewBox="0 0 32 32" fill="none" xmlns="http://www.w3.org/2000/svg">
<path d="M32 13.4194H30.8402L29.1116 14.3289C28.9171 14.2215 28.7147 14.1305 28.4965 14.0759L26.3221 13.5317V13.2845C27.284 12.6132 27.871 11.5041 27.871 10.3226V9.42039C27.871 7.41536 26.2999 5.73742 24.369 5.6789C24.2709 5.67639 24.1744 5.67994 24.0774 5.68471L24.6411 4.3649L21.908 1.63258L20.2969 2.68123C19.6873 2.33763 19.0387 2.06856 18.3649 1.87981L17.967 0H14.0335L13.6356 1.88032C12.9618 2.06896 12.3131 2.33801 11.7036 2.68168L10.0925 1.63303L7.36161 4.36394L7.91581 5.68471C7.89464 5.68374 7.87452 5.67993 7.85335 5.67942C6.86497 5.65071 5.934 6.01135 5.22684 6.69781C4.51864 7.38387 4.12903 8.30452 4.12903 9.29032V10.3226C4.12903 11.5041 4.71548 12.6126 5.67742 13.284V13.5317L4.2591 13.8863L1.68826 12.3871H0V23.0819L5.07761 24.7742H6.06652L6.19 24.3417L7.74645 25.2759C7.77194 26.1223 8.45058 26.8032 9.29613 26.8329C9.32581 27.6748 10.0026 28.3516 10.8445 28.3813C10.8742 29.2232 11.551 29.9 12.3929 29.9297C12.4236 30.7914 13.1293 31.4839 13.998 31.4839C14.3206 31.4839 14.6368 31.3833 14.9027 31.2041L15.3599 31.6079C15.6468 31.8606 16.0161 32 16.3985 32H16.4939C17.3528 32 18.0517 31.3057 18.0625 30.4496C18.9121 30.4388 19.6001 29.7508 19.6109 28.9012C20.461 28.8904 21.1494 28.2014 21.1593 27.3513C22.0172 27.3312 22.7097 26.6303 22.7097 25.7676C22.7097 25.7157 22.7071 25.6646 22.7019 25.6129L32 20.9642V13.4194ZM26.8387 9.42039V10.3226C26.8387 11.2387 26.3437 12.0945 25.5469 12.5559L25.2888 12.7052L25.2908 14.3385L27.8695 14.9826L22.1935 17.97V16.5797C22.1935 15.8858 21.9133 15.2505 21.4544 14.781L23.2258 14.3385V12.7039L22.9683 12.555C22.1719 12.0945 21.6774 11.2386 21.6774 10.3226V9.29032C21.6774 8.58645 21.9557 7.92819 22.4614 7.43806C22.9667 6.94806 23.6371 6.684 24.3379 6.71116C25.7167 6.75252 26.8387 7.96794 26.8387 9.42039ZM16.7782 17.5643L14.4418 16.8175C13.377 16.4763 12.2245 16.4254 11.1346 16.6668L10.8387 16.7324V16.5796C10.8387 15.868 11.3213 15.25 12.0114 15.0771L14.9677 14.3385V12.7039L14.7102 12.555C13.9138 12.0945 13.4194 11.2386 13.4194 10.3226V9.29032C13.4194 8.58645 13.6976 7.92819 14.2034 7.43806C14.7086 6.94806 15.3834 6.684 16.0799 6.71116C17.4586 6.75252 18.5806 7.96794 18.5806 9.42039V10.3226C18.5806 11.2387 18.0857 12.0945 17.2888 12.5559L17.0308 12.7052L17.0327 14.3385L19.9886 15.0772C20.3237 15.1608 20.6212 15.3541 20.8337 15.6264C21.0462 15.8986 21.1615 16.2342 21.1613 16.5795V18.5135L21.0337 18.5806H20.7175L17.5443 17.6739C17.2943 17.6031 17.0368 17.5741 16.7782 17.5643ZM10.9544 7.72477C11.9236 5.84677 13.8745 4.64516 16 4.64516C18.1054 4.64516 20.0479 5.83064 21.0245 7.68323C20.7748 8.18217 20.645 8.73243 20.6452 9.29032V10.3226C20.6452 11.504 21.2316 12.6126 22.1935 13.284V13.5317L20.129 14.0486L18.064 13.5317V13.2845C19.0259 12.6132 19.6129 11.504 19.6129 10.3226V9.42039C19.6129 7.41529 18.0418 5.73742 16.1109 5.6789C15.123 5.64994 14.1915 6.01084 13.4844 6.69735C12.7767 7.38381 12.3871 8.30445 12.3871 9.29032V10.3226C12.3871 11.504 12.9735 12.6126 13.9355 13.284V13.5317L11.871 14.0486L9.80594 13.5317V13.2845C10.7679 12.6132 11.3548 11.504 11.3548 10.3226V9.42039C11.3548 8.81303 11.2086 8.23639 10.9544 7.72477ZM8.58064 4.60335L10.2296 2.95439L11.681 3.8989L11.9586 3.72858C12.6545 3.30213 13.4065 2.98987 14.1935 2.80168L14.5111 2.72555L14.8702 1.03226H17.1303L17.4884 2.72503L17.8059 2.8009C18.593 2.98942 19.345 3.30168 20.0408 3.72806L20.3185 3.89839L21.7699 2.95387L23.4168 4.60129L22.8314 5.972C22.4329 6.14342 22.0634 6.38458 21.7419 6.69632C21.7207 6.71697 21.7025 6.73916 21.6819 6.76032C20.466 4.82742 18.3163 3.6129 16 3.6129C13.6671 3.6129 11.5114 4.83871 10.2984 6.79135C9.97381 6.45161 9.58768 6.17639 9.15981 5.98413L8.58064 4.60335ZM6.70968 14.3385V12.7039L6.45213 12.555C5.65574 12.0945 5.16129 11.2386 5.16129 10.3226V9.29032C5.16129 8.58645 5.43955 7.92819 5.94529 7.43806C6.45058 6.94806 7.12245 6.684 7.82181 6.71116C9.20058 6.75252 10.3226 7.96794 10.3226 9.42039V10.3226C10.3226 11.2387 9.82761 12.0945 9.03077 12.5559L8.77271 12.7052L8.77464 14.3385L10.5456 14.781C10.0867 15.2505 9.80645 15.8858 9.80645 16.5795V16.9619L8.19658 17.3197L8.23839 17.1735L8.25806 16.2197L5.53606 14.6317L6.70968 14.3385ZM1.03226 13.4194H1.40852L5.12045 15.5845L3.24748 23.0761L1.03226 22.3374V13.4194ZM5.24497 23.7419L4.2291 23.4035L6.04865 16.1261L7.22581 16.8125V16.9599L5.28832 23.7419H5.24497ZM8.77419 25.2278C8.77456 25.0744 8.83541 24.9273 8.94355 24.8185L9.85084 23.9113C9.95962 23.8032 10.1066 23.7423 10.26 23.7419C10.5791 23.7419 10.8386 24.0015 10.8386 24.3206C10.8383 24.474 10.7774 24.6211 10.6693 24.7299L9.762 25.6371C9.65324 25.7452 9.50624 25.806 9.3529 25.8064C9.03381 25.8064 8.77426 25.5469 8.77426 25.2278H8.77419ZM10.3226 26.7762C10.3229 26.6228 10.3838 26.4757 10.4919 26.3669L11.3992 25.4597C11.508 25.3516 11.655 25.2907 11.8084 25.2903C12.1275 25.2903 12.387 25.5499 12.387 25.869C12.3867 26.0224 12.3258 26.1694 12.2177 26.2783L11.3104 27.1855C11.2016 27.2936 11.0546 27.3544 10.9013 27.3548C10.5822 27.3548 10.3226 27.0953 10.3226 26.7762H10.3226ZM11.871 28.3246C11.8713 28.1712 11.9322 28.0241 12.0403 27.9153L12.9476 27.0081C13.0564 26.9 13.2034 26.8391 13.3568 26.8387C13.6759 26.8387 13.9354 27.0983 13.9354 27.4174C13.9351 27.5708 13.8742 27.7178 13.7661 27.8266L12.8588 28.7339C12.75 28.842 12.603 28.9028 12.4497 28.9032C12.1306 28.9032 11.871 28.6437 11.871 28.3246H11.871ZM13.998 30.4516C13.6789 30.4516 13.4194 30.1921 13.4194 29.873C13.4197 29.7196 13.4806 29.5725 13.5887 29.4637L14.496 28.5564C14.6048 28.4483 14.7518 28.3875 14.9052 28.3871C15.2243 28.3871 15.4838 28.6466 15.4838 28.9657C15.4834 29.1191 15.4226 29.2662 15.3145 29.375L14.4072 30.2823C14.2984 30.3903 14.1514 30.4512 13.9981 30.4516H13.998ZM16.4939 30.9677H16.3985C16.2674 30.9679 16.1409 30.9199 16.0428 30.8329L15.6568 30.4925L16.0443 30.1048C16.1827 29.9665 16.2901 29.8019 16.3695 29.6252L16.8387 30.0159C16.8994 30.0663 16.9482 30.1296 16.9816 30.2011C17.0151 30.2725 17.0324 30.3505 17.0323 30.4294C17.0323 30.7263 16.7908 30.9677 16.4939 30.9677ZM21.1225 26.3226H21.0333C20.9035 26.3225 20.7778 26.2769 20.6782 26.1935L17.8793 23.8612L17.218 24.6545L19.936 26.9191C19.9965 26.9697 20.0452 27.0329 20.0785 27.1044C20.1119 27.1759 20.1291 27.2538 20.129 27.3326C20.129 27.6295 19.8876 27.871 19.5907 27.871H19.4781C19.3522 27.8708 19.2304 27.8266 19.1338 27.7459L16.3304 25.41L15.6691 26.2034L18.3871 28.4683C18.4478 28.5185 18.4966 28.5816 18.5301 28.653C18.5636 28.7243 18.5808 28.8022 18.5806 28.881C18.5806 29.1779 18.3392 29.4194 18.0423 29.4194C17.8443 29.4194 17.6512 29.349 17.4992 29.2228L16.3473 28.2626C16.0935 27.7439 15.5721 27.3823 14.9615 27.3606C14.9317 26.5187 14.255 25.8419 13.4131 25.8123C13.3833 24.9703 12.7066 24.2935 11.8647 24.2639C11.8344 23.4022 11.1288 22.7097 10.2601 22.7097C9.83594 22.7097 9.42084 22.8815 9.12097 23.1815L8.21374 24.0887C8.15955 24.1429 8.11465 24.2044 8.06903 24.2654L6.48361 23.314L7.87348 18.4496L11.3579 17.6749C12.2719 17.4705 13.2356 17.5149 14.127 17.8001L14.8874 18.0434L12.3097 19.3321C11.7207 19.6273 11.3548 20.2197 11.3548 20.8786V20.9806C11.3548 21.934 12.1305 22.7097 13.0839 22.7097C13.3972 22.7097 13.7054 22.6245 13.9733 22.463L15.8952 21.3105C16.2812 21.0792 16.7994 21.1298 17.1328 21.4297L21.4937 25.3543C21.5514 25.4066 21.5976 25.4704 21.6292 25.5415C21.6609 25.6127 21.6773 25.6897 21.6774 25.7676C21.6774 26.0739 21.4287 26.3226 21.1225 26.3226ZM30.9677 20.3261L22.2724 24.6741C22.2441 24.6441 22.2145 24.6154 22.1837 24.5879L17.8236 20.6633C17.4423 20.3189 16.9467 20.1285 16.4329 20.129C16.0562 20.1291 15.6866 20.2316 15.3636 20.4254L13.441 21.5783C13.3332 21.6433 13.2097 21.6775 13.0839 21.6774C12.6994 21.6774 12.3871 21.3652 12.3871 20.9806V20.8785C12.3871 20.6127 12.5348 20.3743 12.7722 20.2555L15.6512 18.816C16.1439 18.5693 16.7288 18.5141 17.2598 18.6668L20.5033 19.5933L21.2888 19.6129L30.9677 14.5187V20.3261Z" fill="#FF6500"/>
</svg>
