<svg width="32" height="29" viewBox="0 0 32 29" fill="none" xmlns="http://www.w3.org/2000/svg">
<path d="M12.4805 20.651C16.6814 20.651 20.0869 17.2462 20.0869 13.0462C20.0869 8.8462 16.6814 5.44141 12.4805 5.44141C8.27954 5.44141 4.87402 8.8462 4.87402 13.0462C4.87402 17.2462 8.27954 20.651 12.4805 20.651Z" stroke="#FF6500" stroke-miterlimit="10" stroke-linecap="round" stroke-linejoin="round"/>
<path d="M11.3684 18.6618C10.2544 18.444 9.23085 17.8983 8.42908 17.0948C6.19552 14.8617 6.19552 11.2282 8.42908 8.99513C10.6626 6.76207 14.297 6.76201 16.5305 8.99513C18.7641 11.2283 18.7641 14.8618 16.5305 17.0949C15.7234 17.9038 14.6916 18.4512 13.5693 18.6661M17.8584 18.4224L20.1054 20.669M26.547 24.5028L27.4048 25.3604C27.7282 25.6838 27.7282 26.2081 27.4048 26.5314L25.9689 27.967C25.6456 28.2903 25.1214 28.2903 24.7981 27.967L19.3876 22.5577C19.0642 22.2343 19.0642 21.7099 19.3876 21.3866L20.8235 19.9511C21.1468 19.6278 21.671 19.6278 21.9943 19.9511L25.0001 22.9562" stroke="#FF6500" stroke-miterlimit="10" stroke-linecap="round" stroke-linejoin="round"/>
<path d="M2.77763 5.11675C4.05278 5.11675 5.0865 4.08326 5.0865 2.80837C5.0865 1.53349 4.05278 0.5 2.77763 0.5C1.50247 0.5 0.46875 1.53349 0.46875 2.80837C0.46875 4.08326 1.50247 5.11675 2.77763 5.11675Z" stroke="#FF6500" stroke-miterlimit="10" stroke-linecap="round" stroke-linejoin="round"/>
<path d="M19.5384 5.11675C20.8135 5.11675 21.8472 4.08326 21.8472 2.80837C21.8472 1.53349 20.8135 0.5 19.5384 0.5C18.2632 0.5 17.2295 1.53349 17.2295 2.80837C17.2295 4.08326 18.2632 5.11675 19.5384 5.11675Z" stroke="#FF6500" stroke-miterlimit="10" stroke-linecap="round" stroke-linejoin="round"/>
<path d="M12.4622 13.7378C13.7374 13.7378 14.7711 12.7043 14.7711 11.4295C14.7711 10.1546 13.7374 9.12109 12.4622 9.12109C11.187 9.12109 10.1533 10.1546 10.1533 11.4295C10.1533 12.7043 11.187 13.7378 12.4622 13.7378Z" stroke="#FF6500" stroke-miterlimit="10" stroke-linecap="round" stroke-linejoin="round"/>
<path d="M29.222 13.7378C30.4971 13.7378 31.5308 12.7043 31.5308 11.4295C31.5308 10.1546 30.4971 9.12109 29.222 9.12109C27.9468 9.12109 26.9131 10.1546 26.9131 11.4295C26.9131 12.7043 27.9468 13.7378 29.222 13.7378Z" stroke="#FF6500" stroke-miterlimit="10" stroke-linecap="round" stroke-linejoin="round"/>
<path d="M7.66383 7.15894L4.50195 4.34394M10.7376 9.89456L9.09008 8.42769M27.4983 9.89469L21.2625 4.34363M27.4983 9.89469V8.27969M27.4983 9.89469H25.8833M15.2507 8.03206L13.9263 9.64581M18.0738 4.59269L16.4576 6.56206M28.5807 0.5V0.912062M28.5807 3.19263V3.60469M30.1331 2.05231H29.721M27.4404 2.05231H27.0283" stroke="#FF6500" stroke-miterlimit="10" stroke-linecap="round" stroke-linejoin="round"/>
</svg>
