<svg width="29" height="29" viewBox="0 0 29 29" fill="none" xmlns="http://www.w3.org/2000/svg">
<path d="M5.09157 13.7121H0.360465C0.161609 13.7121 0 13.8737 0 14.0726V24.0232C0 24.2221 0.161609 24.3837 0.360465 24.3837H5.09157C5.29043 24.3837 5.45203 24.2221 5.45203 24.0232V14.0726C5.45203 13.8731 5.29103 13.7121 5.09157 13.7121ZM4.7311 23.6627H0.72093V14.433H4.7311V23.6627ZM12.2702 10.4949H7.53913C7.34027 10.4949 7.17866 10.6566 7.17866 10.8554V24.0232C7.17866 24.2221 7.34027 24.3837 7.53913 24.3837H12.2702C12.4691 24.3837 12.6307 24.2221 12.6307 24.0232V10.8554C12.6307 10.6566 12.4691 10.4949 12.2702 10.4949ZM11.9098 23.6627H7.89959V11.2159H11.9098V23.6627ZM2.72632 11.4063C4.17358 11.4063 5.3505 10.2288 5.3505 8.78213C5.3505 8.38742 5.26219 8.01314 5.10539 7.67671L7.91641 5.86417C8.39824 6.42289 9.11016 6.77795 9.90438 6.77795C10.7413 6.77795 11.4868 6.38384 11.968 5.77225L14.6559 7.33787C14.5256 7.65398 14.4586 7.99262 14.4589 8.33455C14.4589 9.78182 15.6364 10.9587 17.083 10.9587C18.5303 10.9587 19.7072 9.78122 19.7072 8.33455C19.7072 7.84733 19.5733 7.39074 19.3408 6.99903L22.4528 4.52324C22.9238 4.97202 23.5606 5.24837 24.2611 5.24837C25.7084 5.24837 26.8853 4.07085 26.8853 2.62419C26.8853 1.17692 25.7078 0 24.2611 0C22.8144 0 21.6369 1.17752 21.6369 2.62419C21.6369 3.11141 21.7709 3.568 22.0034 3.95971L18.8914 6.4355C18.4204 5.98672 17.7835 5.71037 17.083 5.71037C16.2462 5.71037 15.5006 6.10448 15.0194 6.71607L12.3315 5.15045C12.4619 4.83434 12.5288 4.49569 12.5286 4.15376C12.5286 2.70649 11.351 1.52957 9.90438 1.52957C8.45771 1.52957 7.28019 2.70709 7.28019 4.15376C7.28019 4.54847 7.36851 4.92275 7.52531 5.25919L4.71428 7.07172C4.23246 6.513 3.52054 6.15795 2.72632 6.15795C1.27905 6.15795 0.102132 7.33546 0.102132 8.78213C0.101531 10.2294 1.27905 11.4063 2.72632 11.4063ZM24.2617 0.72093C25.3113 0.72093 26.165 1.57463 26.165 2.62419C26.165 3.67374 25.3113 4.52744 24.2617 4.52744C23.2122 4.52744 22.3584 3.67374 22.3584 2.62419C22.3584 1.57463 23.2122 0.72093 24.2617 0.72093ZM17.083 6.4313C18.1326 6.4313 18.9863 7.285 18.9863 8.33455C18.9863 9.38411 18.1326 10.2378 17.083 10.2378C16.0335 10.2378 15.1798 9.38411 15.1798 8.33455C15.1798 7.285 16.0335 6.4313 17.083 6.4313ZM9.90438 2.2505C10.9539 2.2505 11.8076 3.10421 11.8076 4.15376C11.8076 5.20331 10.9539 6.05702 9.90438 6.05702C8.85483 6.05702 8.00112 5.20331 8.00112 4.15376C8.00112 3.10421 8.85483 2.2505 9.90438 2.2505ZM2.72632 6.87888C3.77587 6.87888 4.62957 7.73258 4.62957 8.78213C4.62957 9.83169 3.77587 10.6854 2.72632 10.6854C1.67676 10.6854 0.822461 9.83169 0.822461 8.78213C0.822461 7.73258 1.67676 6.87888 2.72632 6.87888ZM26.988 17.5498V8.70523C26.988 8.50638 26.8264 8.34477 26.6276 8.34477H21.8965C21.6976 8.34477 21.536 8.50638 21.536 8.70523V14.4108C21.3552 14.3976 21.1725 14.3904 20.9887 14.3904C20.5874 14.3904 20.1939 14.4234 19.81 14.4865V12.6265C19.81 12.4276 19.6484 12.266 19.4495 12.266H14.7184C14.5195 12.266 14.3579 12.4276 14.3579 12.6265V18.6625C13.9392 19.5811 13.7055 20.6006 13.7055 21.6736C13.7055 25.6897 16.9725 28.9568 20.9887 28.9568C25.0049 28.9568 28.2719 25.6897 28.2719 21.6736C28.2713 20.144 27.7967 18.7232 26.988 17.5498ZM22.2563 9.0657H26.2665V16.6613C25.2151 15.5547 23.8213 14.7779 22.2563 14.5015V9.0657ZM15.0783 12.9876H19.0884V14.6427C17.4531 15.0849 16.0437 16.084 15.0783 17.4231V12.9876ZM20.9881 28.2364C17.3696 28.2364 14.4258 25.2926 14.4258 21.6742C14.4258 18.0557 17.3696 15.1119 20.9881 15.1119C24.6066 15.1119 27.5504 18.0557 27.5504 21.6742C27.5504 25.2926 24.6066 28.2364 20.9881 28.2364ZM20.9881 16.1284C17.9301 16.1284 15.4423 18.6162 15.4423 21.6742C15.4423 24.7321 17.9301 27.2199 20.9881 27.2199C24.046 27.2199 26.5338 24.7321 26.5338 21.6742C26.5338 18.6162 24.046 16.1284 20.9881 16.1284ZM23.7048 25.6591L23.4585 25.232C23.4106 25.1492 23.3318 25.0888 23.2395 25.0641C23.1471 25.0393 23.0487 25.0521 22.9658 25.0998C22.8831 25.1477 22.8227 25.2264 22.7979 25.3188C22.7732 25.4111 22.786 25.5095 22.8337 25.5924L23.0812 26.0208C22.5379 26.2829 21.9501 26.44 21.3485 26.484V25.9901C21.3485 25.7913 21.1869 25.6297 20.9881 25.6297C20.7892 25.6297 20.6276 25.7913 20.6276 25.9901V26.484C20.0106 26.4383 19.4255 26.2773 18.895 26.0208L19.1425 25.5924C19.2422 25.42 19.1828 25.1995 19.0103 25.0998C18.8379 25.0001 18.6174 25.0595 18.5177 25.232L18.2708 25.6591C17.7732 25.3187 17.3433 24.8886 17.0031 24.3909L17.4303 24.1446C17.513 24.0967 17.5734 24.0179 17.5982 23.9256C17.623 23.8332 17.6101 23.7348 17.5625 23.6519C17.5146 23.5691 17.4358 23.5087 17.3435 23.484C17.2511 23.4592 17.1527 23.4721 17.0698 23.5197L16.6415 23.7673C16.3794 23.224 16.2222 22.6362 16.1783 22.0346H16.6721C16.871 22.0346 17.0326 21.873 17.0326 21.6742C17.0326 21.4753 16.871 21.3137 16.6721 21.3137H16.1783C16.2239 20.6967 16.3849 20.1115 16.6415 19.5811L17.0698 19.8286C17.1269 19.8616 17.1888 19.8766 17.2495 19.8766C17.3738 19.8766 17.4952 19.8118 17.5619 19.6964C17.6616 19.524 17.6021 19.3035 17.4297 19.2038L17.0025 18.9575C17.343 18.46 17.7728 18.03 18.2702 17.6892L18.5171 18.1164C18.5838 18.2317 18.7051 18.2966 18.8295 18.2966C18.8926 18.2967 18.9547 18.2799 19.0091 18.2479C19.0919 18.2 19.1523 18.1213 19.177 18.0289C19.2018 17.9366 19.189 17.8382 19.1413 17.7553L18.8938 17.327C19.437 17.0649 20.0249 16.9077 20.6264 16.8638V17.3576C20.6264 17.5565 20.788 17.7181 20.9869 17.7181C21.1857 17.7181 21.3473 17.5565 21.3473 17.3576V16.8638C21.9643 16.9094 22.5495 17.0704 23.08 17.327L22.8325 17.7553C22.7327 17.9277 22.7922 18.1482 22.9646 18.2479C23.0217 18.281 23.0836 18.2966 23.1443 18.2966C23.2686 18.2966 23.39 18.2317 23.4567 18.1164L23.703 17.6892C24.2006 18.0296 24.6305 18.4597 24.9706 18.9575L24.5435 19.2038C24.4607 19.2517 24.4003 19.3304 24.3756 19.4228C24.3508 19.5151 24.3636 19.6135 24.4113 19.6964C24.478 19.8118 24.5993 19.8766 24.7237 19.8766C24.785 19.8766 24.8469 19.861 24.9033 19.8286L25.3317 19.5811C25.5938 20.1243 25.7509 20.7121 25.7949 21.3137H25.301C25.1022 21.3137 24.9406 21.4753 24.9406 21.6742C24.9406 21.873 25.1022 22.0346 25.301 22.0346H25.7949C25.7492 22.6516 25.5882 23.2368 25.3317 23.7673L24.9033 23.5197C24.7309 23.42 24.5104 23.4795 24.4107 23.6519C24.311 23.8243 24.3704 24.0448 24.5429 24.1446L24.97 24.3909C24.633 24.8883 24.2022 25.3191 23.7048 25.6591ZM23.1617 21.6742C23.1617 21.873 23.0001 22.0346 22.8012 22.0346H20.9881C20.7892 22.0346 20.6276 21.873 20.6276 21.6742V18.9827C20.6276 18.7838 20.7892 18.6222 20.9881 18.6222C21.1869 18.6222 21.3485 18.7838 21.3485 18.9827V21.3137H22.8012C23.0001 21.3137 23.1617 21.4753 23.1617 21.6742Z" fill="#FF6500"/>
</svg>
