<svg width="16" height="16" viewBox="0 0 16 16" fill="none" xmlns="http://www.w3.org/2000/svg">
<g clip-path="url(#clip0_105_509)">
<path d="M9.9172 0.77259L8.38237 0.361328L7.08895 5.18848L5.92122 0.830495L4.38635 1.24176L5.64801 5.95023L2.50552 2.80776L1.38193 3.93135L4.82885 7.37829L0.536261 6.22809L0.125 7.76292L4.81519 9.01966C4.7615 8.78805 4.73309 8.54672 4.73309 8.29876C4.73309 6.5436 6.15591 5.12077 7.91108 5.12077C9.66624 5.12077 11.0891 6.5436 11.0891 8.29876C11.0891 8.54512 11.061 8.78497 11.008 9.01521L15.2705 10.1573L15.6817 8.62251L10.9729 7.36077L15.2658 6.21049L14.8545 4.67566L10.1458 5.93732L13.2883 2.79486L12.1647 1.67127L8.76563 5.07039L9.9172 0.77259Z" fill="#FF6500"/>
<path d="M11.0015 9.03125C10.8699 9.58758 10.5921 10.0874 10.2109 10.4878L13.2989 13.5758L14.4225 12.4522L11.0015 9.03125Z" fill="#FF6500"/>
<path d="M10.1798 10.5215C9.79403 10.9155 9.3065 11.2096 8.75977 11.3611L9.88343 15.5547L11.4183 15.1434L10.1798 10.5215Z" fill="#FF6500"/>
<path d="M8.70335 11.3758C8.4497 11.441 8.18382 11.4756 7.90983 11.4756C7.61629 11.4756 7.33204 11.4358 7.06218 11.3613L5.9375 15.5587L7.47233 15.97L8.70335 11.3758Z" fill="#FF6500"/>
<path d="M7.00834 11.3462C6.46996 11.1871 5.99109 10.8893 5.61318 10.4941L2.51758 13.5898L3.64116 14.7133L7.00834 11.3462Z" fill="#FF6500"/>
<path d="M5.58627 10.4659C5.21483 10.0682 4.94428 9.57509 4.8155 9.02734L0.539062 10.1732L0.950321 11.708L5.58627 10.4659Z" fill="#FF6500"/>
</g>
<defs>
<clipPath id="clip0_105_509">
<rect width="16" height="16" fill="white"/>
</clipPath>
</defs>
</svg>
